<svg version="1.1" xmlns="http://www.w3.org/2000/svg" viewBox="0 0 818 490.5" width="818" height="490.5" filter="invert(93%) hue-rotate(180deg)">
  <!-- svg-source:excalidraw -->
  
  <defs>
    <style class="style-fonts">
      @font-face {
        font-family: "Virgil";
        src: url("https://excalidraw.com/Virgil.woff2");
      }
      @font-face {
        font-family: "Cascadia";
        src: url("https://excalidraw.com/Cascadia.woff2");
      }
      @font-face {
        font-family: "Assistant";
        src: url("https://excalidraw.com/Assistant-Regular.woff2");
      }
    </style>
    
  </defs>
  <g stroke-linecap="round" transform="translate(253.5 341.5) rotate(0 276.5 26)"><path d="M0 0 C0 0, 0 0, 0 0 M0 0 C0 0, 0 0, 0 0 M-0.89 7.53 C0.81 4.07, 4.36 1.47, 4.01 -0.65 M-0.9 7.02 C1.4 4.28, 3.17 1.62, 4.42 0.18 M-0.32 11.74 C5.16 9.78, 9.79 5.61, 10.59 0.83 M-0.31 10.53 C3.18 8.82, 5.33 6.57, 9.81 -1.59 M-1.68 16.89 C2.5 15.51, 7.01 10.15, 14.42 -0.25 M-1.01 19.1 C7.35 12.46, 10.94 5.31, 15.29 -0.21 M0.34 20.73 C6.13 20.92, 7.44 9.68, 21.56 -4.02 M2.06 23.26 C9.62 13.62, 15.28 6.92, 23.02 0.58 M0.21 30.04 C6.09 18.18, 19.37 15.83, 27.29 -2.28 M-1.06 30.85 C8.72 22.06, 14.6 11.09, 27.04 -0.9 M-4.08 33.31 C7.66 29.55, 18.73 12.54, 34.1 0.66 M-1.28 37.69 C9.38 28.04, 16.23 18.02, 30.68 -1.55 M1.02 38.77 C10.38 30.02, 22.11 15.51, 40.51 2.16 M-0.53 44.46 C14.13 24.61, 29.17 10.62, 35 1.19 M-3.26 52.57 C10 32.41, 19.52 19.77, 44.47 -0.92 M0.16 48.12 C11.47 36.25, 22.15 22.04, 44.03 -1.59 M0.07 51.83 C16.91 33.02, 36 19.98, 48.24 1.68 M2.49 54.09 C11.71 39.75, 25.18 27.12, 49.42 0.79 M4.61 54.56 C20.8 31.21, 39.51 17.84, 53.74 -0.55 M7.65 55.39 C23.9 33.56, 40.13 15.58, 51.63 -0.34 M16.06 54.59 C26.29 38.49, 38.97 23.23, 59.46 -0.94 M13.55 54.73 C25.42 37.09, 39.35 19.58, 56.63 2.05 M19.63 55.35 C29.81 34.9, 52.47 16.36, 63.8 -1.85 M18.05 51.53 C26.62 41.29, 41.4 27.08, 65.11 -0.21 M19.44 56.26 C42.49 35.77, 58.06 13.21, 69.96 -0.72 M24.22 51.44 C32.83 44.55, 42.81 32.78, 69.1 0.52 M27.42 50.67 C36.53 45.53, 47.16 27.69, 73.33 -0.26 M28.99 53.49 C41.12 39.58, 51.66 22.04, 73.22 0.81 M34.66 55.66 C51.74 35.09, 66.71 14.43, 82.34 -2.5 M32.36 51.09 C46.39 42.05, 56.2 28.41, 79.34 1.16 M40.31 53.96 C58.94 31.09, 72.89 17.01, 81.84 -3.01 M38.12 55.11 C54.91 33.12, 70.57 13.73, 83.78 -0.88 M46.96 55.79 C54.8 41.49, 69.52 26.83, 94.01 -0.94 M42.95 50.96 C60.33 35.23, 77.49 12.92, 89.99 0.33 M49.49 56.8 C60 43.17, 65.3 35.15, 93.67 -1.17 M49.2 53.63 C64.23 37.93, 77.5 20.7, 93.73 -0.44 M54.44 51.86 C74.71 33.06, 88.15 11.91, 101.21 -0.48 M54.02 52.76 C66.07 37.11, 78.02 21.94, 99.77 -0.19 M60.92 56.99 C71.59 33.87, 93.33 16.2, 105.94 2.4 M58.07 51.69 C72.16 37.76, 88.91 24.35, 107.08 1.33 M63.3 51.98 C76.57 37.22, 97.2 21.67, 110.98 -3.41 M66.06 53.32 C78.04 40.34, 89.74 28.76, 109.5 0.76 M67.39 54.5 C92.69 33.08, 110.13 14.32, 119.95 -2.23 M70.69 51.35 C85.73 33.2, 103.91 17.2, 116.29 0.83 M78.56 54.24 C88.47 35.37, 108.04 11.54, 121.16 2.19 M74.63 51.65 C87.2 39.22, 100.91 22.62, 120.08 1.77 M84.51 55.5 C98.2 37.2, 112.7 18.96, 123.75 0.94 M81.07 52.05 C98.01 35.94, 110.7 21.29, 126.87 -1.43 M88.08 55.13 C99.71 37.88, 112.36 14.85, 132.42 -1.58 M84.4 55.42 C96.08 41.35, 112.39 26.13, 134.53 0.83 M90.69 52.33 C102.3 41.45, 108.48 31.66, 140.28 -1.64 M93.36 52.67 C102.02 41.89, 114.28 28.27, 139.48 1.77 M93.17 50.6 C110.63 33.98, 126.13 11.04, 144.24 -2.43 M97.79 51.93 C110.5 35.09, 128.12 16.7, 143.93 1.33 M103.17 51.53 C117.59 37.05, 129.22 22.25, 145.91 3.91 M103.77 53.48 C120.85 31.25, 138.73 11.84, 146.5 -0.75 M103.98 56.78 C125.22 37.87, 140.58 19.73, 150.92 -1.89 M108.33 54.91 C117.27 40.68, 128.34 31.01, 153.47 -1.92 M109.97 53.84 C131.5 32.39, 143.09 19.25, 161.84 -0.34 M114.62 54.14 C124.03 36.94, 138.05 20.02, 157.43 0.29 M119.43 49.99 C130.63 34.06, 150.29 16.47, 161.54 -3.3 M118.62 54.5 C130.05 41.54, 141.36 27.96, 164.45 -0.72 M121.95 50.15 C131.05 42.7, 142.34 33.13, 170.07 3.87 M124.31 51.75 C136.58 40.06, 146.13 27.24, 168.84 0.53 M131.3 50.75 C140.11 41.89, 155.51 26.87, 172.03 0.2 M130.37 55.22 C143.53 35.08, 159.83 15.84, 176.24 0.55 M136.79 49.58 C145.93 35.22, 161.36 15.07, 181.44 2.98 M133.36 54.79 C151.66 33.2, 172.03 13.35, 178.41 0.05 M136.15 55.74 C147.1 40.3, 158.21 27.07, 185.12 -2.36 M138.39 54.02 C152.83 35.34, 170.15 18.85, 184.31 -1.09 M142.94 51.41 C160.65 30.62, 177.14 11.05, 191.57 3.62 M146.35 53.16 C159.29 37.26, 173.73 22.7, 190.9 1.32 M147.38 49.84 C164.45 32.34, 184.65 13.8, 198.34 -3.75 M148.57 54.25 C162.35 38.77, 175.21 22.76, 198.24 -1.22 M155.72 49.12 C169.21 36.15, 190.45 12.9, 200.9 -3.38 M153.99 52.15 C169.88 35.15, 182.6 18.75, 200.19 -0.79 M159.16 50.13 C179.95 31.53, 196.27 12.08, 208.04 1.44 M159.89 51.65 C178.24 33.61, 194.32 17.68, 207.66 -2.01 M165.21 50.36 C184.94 33.89, 205.89 10.38, 210.71 0.97 M167.05 54.48 C176.8 38.41, 193.05 25.78, 211.23 -0.98 M174.52 53.85 C185.25 39.92, 189.94 26.49, 221.4 -3.18 M170.44 52.41 C187.67 36.49, 203.07 17.51, 216.36 -2.21 M180.33 49 C191.35 40.86, 200.99 27.16, 219.05 3.88 M178.41 54.26 C193.11 32.25, 213.78 11.94, 222.07 -1.56 M185.28 50.47 C197.35 36.03, 208.04 23.74, 228.39 -3.83 M183.39 55.06 C199.36 35.26, 214.54 13.13, 228.16 0.82 M184.16 53.82 C195.25 43.69, 211.62 26.31, 232.82 -3.28 M188.39 51.77 C200.3 38.32, 214.13 21.88, 233.85 1.56 M192.06 49.6 C204.68 39.58, 219.77 19.19, 237.14 0.21 M193.01 52.61 C209.93 31.76, 226.08 14.39, 236.35 1.88 M196.54 57.53 C203.81 40.85, 219.04 32.85, 247.71 3.07 M197.37 52.41 C208.33 39.84, 219.22 30.05, 244.81 0.89 M200.32 53.07 C220.24 32.19, 238.36 17.8, 248.58 -2.38 M202.67 54.41 C215.45 41.61, 224.66 27.17, 248.28 -1.07 M210.18 53.32 C217.17 36.62, 231.78 25.47, 252.23 2.68 M207.85 53.29 C223.42 38.77, 237.47 19.97, 256.28 -0.66 M216.31 50.88 C221.61 38.58, 230.13 32.56, 256.44 -2.52 M214.81 52.26 C225.55 40.74, 234.33 31.36, 259.43 -0.42 M221.23 51.77 C234.24 37.29, 243.51 24.25, 263.69 -0.5 M217.08 54.13 C230.73 42.32, 237.68 29.43, 266.69 0.23 M227.11 49.23 C238.02 36.3, 251.55 17.88, 269.98 -1.65 M225 54.35 C237.18 36.54, 250.87 19.74, 270.01 0.1 M232.68 53.68 C244.22 35.28, 256.07 23.72, 276.24 1.65 M230.41 52.09 C239.86 40.6, 252.63 23.5, 277.55 1.28 M236.6 50.5 C245.19 43.33, 257.89 23.18, 277.22 0.93 M235.87 51.27 C248.13 37.02, 263.63 18.29, 282.34 0.17 M242.31 54.01 C262.02 35.16, 276.89 11, 288.82 1.46 M239.29 51.7 C252.38 38.31, 263.43 25.24, 287.49 0.61 M245.47 49.26 C259.28 34.32, 276.41 16.74, 289.01 4.16 M247.16 54.04 C254.09 43.31, 266.44 30.66, 290.84 0.87 M246.74 53.95 C262.77 39.5, 279.56 23.71, 293.19 3.44 M251.24 54.94 C260.42 39.03, 271.97 27.76, 298.2 -1.23 M255.23 52.27 C271.39 33.36, 287.98 9.74, 303.03 1.12 M257.71 52.06 C272.63 33.48, 287.23 18.31, 299.99 -1.31 M261.36 56.82 C277.39 38.87, 285.28 19.76, 309.91 -3.73 M259.9 55.17 C274.7 36.07, 289.7 19.84, 308.48 0.69 M264.21 50.46 C280.58 35.13, 292.2 20.43, 315.75 -0.89 M267.44 51.15 C284.32 34.45, 302.8 14.43, 314.41 -0.47 M268.42 56.18 C283.16 37.84, 299.53 23.54, 320.38 -3.16 M270.98 55.14 C280.83 42.06, 289.27 32.89, 320.24 -2.27 M279.54 54.98 C291.24 41.52, 301.44 25.44, 326.46 -0.41 M275.36 51.53 C289 39.18, 296.27 29.6, 324.78 0.68 M284.95 55.75 C298.26 30.69, 317.87 10.88, 326.79 -1.78 M280.31 53.05 C300.31 33.78, 319.4 13.55, 328.45 1.64 M289.17 53.14 C294.76 44.2, 308.68 30.22, 333.26 2.25 M289.6 53.83 C304.4 35.58, 317.59 20.88, 333.89 0.85 M294.8 49.44 C303.2 41.14, 312.14 23.55, 340.15 -2.33 M291.79 52.48 C305.79 42.48, 313.06 29.1, 339.2 -1.42 M297.19 53.2 C308.08 38.37, 322.81 29.34, 345.07 0.92 M296.7 53.85 C308.88 39.59, 322.69 21.33, 342.61 -1.84 M300.63 49.35 C315.99 36.09, 323.36 26.96, 351.62 1.39 M303.42 52.4 C316.58 38.61, 328.51 23.9, 351.01 -0.14 M306.49 53.35 C318.5 37.5, 332.23 27.19, 353.61 3.64 M310.27 53.51 C320.38 38.05, 331.44 23.06, 355.92 0.13 M311.94 49.77 C325.48 40.89, 337.73 24.94, 363.15 1.49 M313.31 53.22 C332.65 34.69, 348.85 12.52, 359.46 0.97 M318.81 50.23 C335.34 37.38, 347.34 17.04, 369.43 -3.36 M321.06 55.41 C334.19 37.02, 346.36 21.24, 364.89 1.68 M325 55.18 C335.68 36.23, 352.11 21.56, 371.54 0.55 M325.65 54.75 C333.95 41, 347.82 29.59, 371.26 0.02 M333.32 55.89 C349.83 33.79, 360.53 18.17, 377.88 -3.67 M329.54 53.82 C340.06 41.06, 349.52 29.05, 376.66 -0.85 M334.91 52.24 C353.14 36.38, 367.79 18.79, 383.03 -3.41 M336.71 54.17 C351.66 33.94, 366.93 13.99, 380.86 0.81 M342.06 54.61 C354.95 33.23, 373.44 11.57, 383.11 -2.69 M339.31 53.39 C358.89 33.62, 378.72 11.05, 388.5 0.27 M347.6 53.79 C361.43 43.26, 372.62 23.84, 392.7 3.78 M344.88 52.12 C362.88 33.57, 375.9 16.37, 391.81 -0.48 M349.83 54.83 C366.33 37.63, 387.98 12.81, 396.12 0.38 M351.03 55.19 C362.21 40.3, 374.4 24.08, 397.76 -1.8 M359.8 54.89 C372.87 36.97, 387.23 21.43, 404.43 0.52 M356.63 54.61 C368.23 36.46, 383.2 20.76, 402.76 -1.24 M362.26 53.17 C367.49 42.64, 380.13 32.89, 406.7 0.5 M360.48 54.69 C376.34 39.34, 388.32 25.93, 407.87 1.47 M371.03 52.74 C377.69 36.48, 386.59 31.32, 410.93 -2.62 M368.53 51.06 C377.16 42.77, 389.13 28.62, 413.45 1.52 M373.82 54.46 C387.27 35.44, 408.72 9.33, 419.43 -1.16 M372.52 51.77 C389.14 33.93, 408.45 12.06, 418.37 0.05 M379.65 50.78 C387.84 43.31, 402.2 25.74, 421.69 1.1 M377.23 52.31 C396.47 32.76, 412.18 15.54, 422.7 1.23 M379.74 51.7 C399.81 32.13, 421.49 11.87, 425.74 -1.25 M383.1 52.72 C396.21 40.77, 405.79 26.79, 430.89 -0.7 M386.84 54.59 C408.48 31.7, 422.74 10.07, 435.04 2.65 M389.48 52.6 C400.84 36.6, 415.39 21.98, 434.45 -0.31 M396.12 54.08 C407.18 37.62, 424.95 15.34, 439.86 1.77 M393.28 52.23 C411.6 34.26, 429.69 13.83, 439.14 -2 M400.56 51.96 C412.58 35.91, 433.63 16.5, 442.12 -2.87 M400.15 51.58 C411.05 37.61, 423.09 22.42, 443.7 1.13 M407.82 51 C418.56 39.12, 429.65 21.3, 446.82 3.62 M403.2 51.4 C417.16 39, 432.64 22.56, 450.96 -1.68 M406.95 49.63 C428.75 38.97, 444.85 19.86, 454.87 3.89 M409.5 53.04 C420.82 43.71, 430.57 32.22, 454.58 -1.81 M412.55 56.02 C432.75 29.86, 447.9 15.01, 462.48 -1.78 M414.09 51.73 C427.89 37.58, 442.84 24.76, 462.24 -0.17 M416.92 50.25 C428.46 42.52, 445.4 21.26, 470.04 -1.58 M419.9 51.93 C435.67 36.25, 450.56 15.97, 466.29 1.88 M424.81 54.89 C439.9 29.19, 461.42 10.06, 472.85 -1.58 M426.3 53.13 C436.5 42.79, 445.37 29.95, 470.33 2.29 M434.24 52.92 C442.19 38.63, 450.44 26.56, 473.22 -3.59 M429.8 52.89 C450 32.63, 465.57 13.05, 475.13 -0.34 M439.93 49.56 C453.16 33.81, 463.92 22.09, 480.71 -3 M437.23 51.92 C450.63 36.58, 464.55 22.19, 482.64 0.58 M438.13 54.18 C461.54 31.17, 476.59 12.72, 490.78 1.76 M442.43 53.16 C453.81 40.09, 466.44 26.8, 488.49 1.38 M446.03 54.16 C459.79 39.91, 469.84 26.35, 489.7 -0.81 M447.43 54.82 C463.42 33.44, 481.18 13.77, 490.71 -0.74 M450.63 52.77 C470.03 33.12, 484.31 18.39, 497.92 2.52 M451.12 53.44 C465.77 36.79, 483.63 17.25, 498.87 1.29 M460.08 51.02 C472.18 33.2, 496.59 10.37, 502.93 -0.35 M458.48 52.97 C473.17 31.72, 491.95 13.28, 502.82 -0.47 M460.59 53.58 C478.25 38.92, 489.63 22.62, 510.65 -1.04 M461.26 51.81 C480.83 33.89, 499.49 10.17, 509.84 0.04 M467.82 50.63 C484.75 30.27, 499.47 15.45, 510.31 3.24 M467.11 51.89 C478.79 42.37, 492.1 27.84, 513.35 2.01 M475.69 55.73 C492.08 27.98, 507.76 9.85, 517.79 -0.48 M472.36 53.74 C488.73 34.02, 508.79 11.34, 518.08 -1.28 M475.82 55.69 C493.04 41.58, 502.89 30.66, 524.56 -3.01 M479.11 53.53 C493.6 36.67, 506.98 18.97, 524.77 0.71 M486.39 56.49 C492.87 35.89, 509.98 27.88, 532.98 0.84 M484.01 54.15 C497.84 35.08, 512.54 18.38, 531.36 0.78 M491.48 49.09 C507.11 30.54, 522.38 18.63, 537.23 2.13 M487.38 54.24 C503.29 41.57, 512.68 25.47, 533.65 1.07 M493.98 55.35 C510.49 36.07, 525.26 23.96, 542.66 -0.28 M493.92 55.32 C507.9 38.76, 519.38 23.95, 542.54 -1.89 M502.98 53.89 C509.19 41.81, 526.49 24.55, 546.66 -1.93 M497.91 54.77 C513.61 35.58, 526.27 21.26, 544.65 1.92 M506.58 49.97 C516.16 40.22, 536.5 22.8, 550.08 -2.82 M503.86 52.97 C515.1 40.17, 526.05 26.69, 551.57 1 M507.33 49.35 C524.13 36.32, 537.02 25.78, 552.72 -0.07 M511.77 54.28 C523.63 37.29, 541.27 19.81, 555.21 2.99 M519.08 56.19 C526.12 42.08, 534.95 27.03, 556.11 10.72 M513.72 54.21 C527.14 37.21, 542.6 22.09, 556.3 8.43 M522.36 54.91 C525.94 42.59, 539.04 32.69, 555.51 12.54 M523.14 52.35 C528.37 43.8, 540.35 31.33, 556.3 13.01 M525.23 56.07 C530.93 44.98, 538.47 35.64, 557.56 17.18 M527.45 51.56 C532.89 45.66, 539.24 38.66, 556.8 20.99 M534.05 54.97 C540.53 46.69, 547.35 40.47, 558.33 24.06 M532.63 51.69 C536.42 46.56, 545.63 36.53, 553.39 25.2 M537.57 49.81 C541.16 45.63, 552.08 41.71, 555.42 34.37 M535.14 52.94 C539.37 48.41, 543.14 45.33, 553.59 32.39 M543.14 55.82 C547.02 48.06, 549.49 48.9, 556.12 37.17 M539.93 53.18 C547.68 48.99, 553.17 43.64, 556.83 38.52 M545.02 52.37 C548.71 49.76, 553.33 47.96, 555.82 46.46 M547.12 52.28 C548.22 51, 550.49 49.39, 555.11 43.17" stroke="#fcc2d7" stroke-width="0.5" fill="none"></path><path d="M0.13 -0.98 C173.26 -2.93, 347.78 -0.28, 554.16 0.77 M-0.72 0.79 C185.54 -2.76, 370.38 -1.65, 553.29 -0.06 M555.62 2.84 C554.48 14.57, 554.43 21.45, 551.29 50.7 M553.69 -0.18 C552.45 15.6, 552.8 27.63, 551.41 50.4 M552.06 52.9 C337.05 49.46, 122.1 47.51, 0.35 53.2 M552.81 52.24 C370.03 54.5, 185.74 54.93, 0.47 51.9 M-2.71 51.75 C-1.63 30.67, -2.57 12.75, 1.79 -3.23 M-1.87 52.41 C-1.47 30.52, -1.23 11.39, 0.91 1.49" stroke="#1e1e1e" stroke-width="1" fill="none"></path></g><g transform="translate(270.89166259765625 355) rotate(0 259.10833740234375 12.5)"><text x="259.10833740234375" y="0" font-family="Virgil, Segoe UI Emoji" font-size="20px" fill="#1e1e1e" text-anchor="middle" style="white-space: pre;" direction="ltr" dominant-baseline="text-before-edge">IP (v4 v6) ICMP (v6) NDP ECN IGMP IPsec more...</text></g><g stroke-linecap="round" transform="translate(251 420.5) rotate(0 278.5 30)"><path d="M0 0 C0 0, 0 0, 0 0 M0 0 C0 0, 0 0, 0 0 M-0.93 6.21 C2.81 3.37, 2.69 0.85, 5.86 1.54 M-0.37 6.46 C1.43 3.8, 2.85 2.02, 5.52 0.34 M1.3 14.05 C4.45 11.65, 4.81 7.55, 8.31 1.98 M0.95 11.71 C4.66 7.94, 7.14 1.76, 11.17 0.82 M-2.56 21.54 C1.56 16.93, 8.25 7.13, 19.32 3.92 M1.5 19.39 C2.88 14.85, 7.33 9.02, 14.9 1.84 M0.95 27.27 C2.82 15.72, 12.81 6.39, 24.22 -1.18 M1.64 22.36 C3.84 19.29, 11.26 13.78, 21.28 0.85 M-1.53 26.75 C9.09 27.48, 11.56 15.84, 26.87 3.94 M0.99 32.03 C9 18.88, 21.32 5.96, 26.26 0.74 M-1.84 40.25 C7.81 26.26, 17.75 20.85, 29.3 -0.6 M1.73 36.66 C10.7 24.39, 17.51 13.77, 32.56 -0.27 M-1.93 43.41 C4.89 35.01, 18.65 27.79, 39.91 2.58 M0.81 40.59 C13.83 28.54, 21.55 16.28, 36.45 0.72 M-1.64 45.42 C6.29 34.71, 21.66 25.44, 40.94 -1.99 M-0.09 49.59 C14.86 30.64, 32.31 12.08, 42.97 -1.69 M-0.04 51.56 C18.77 39.61, 29.66 23.81, 45.31 3.22 M-0.06 54.59 C17.84 35.8, 34.03 17.43, 48.61 -0.12 M-1.82 56.42 C13.26 47.6, 26.49 31.18, 55.95 -1.37 M0.44 60.11 C14.14 43.25, 29.21 23.66, 52.47 0.64 M7.95 59.39 C19.04 44.21, 29.38 31.92, 58.76 1.42 M4.69 60.92 C16.87 43.6, 30.42 30.38, 58.98 0.71 M8.25 60.49 C32.61 38.64, 47.32 15.74, 61.92 3.42 M9.89 61.04 C24.56 47.32, 36.54 33.03, 65.08 0.17 M19.37 63.32 C39.02 36.37, 58.15 13.19, 64.78 -3.05 M16.22 61.9 C27.5 48.51, 38.42 35.68, 66.9 0.13 M21 62.97 C35.54 41.46, 47.78 29.97, 73.26 0.73 M22.85 61.48 C39.1 36.49, 58.12 17.29, 74.94 -2.22 M29.14 59.97 C45.02 37.13, 61.99 19.78, 76.68 -2.25 M28.54 61.33 C41.02 46.36, 52.85 33.39, 80.78 -0.54 M35.48 58.05 C49.63 42.95, 64.67 15.92, 87.2 1.11 M32.89 59.63 C52.29 35.23, 71.55 12.48, 84.26 -0.28 M36.25 62.14 C49.98 46.88, 64.36 31.42, 92.61 -0.05 M36.99 62.33 C55.49 40.3, 72.97 21.74, 88.15 -1.59 M43.6 60.12 C49.9 49.87, 62.53 33.59, 95.78 1.27 M44.64 60.09 C54.65 46.35, 63 34.65, 97.36 -0.32 M50.48 60.8 C61.39 42.94, 78.9 25.56, 99.5 -0.14 M47.01 59.46 C65.42 37.42, 84.68 17.73, 101.62 1.12 M49.38 60.49 C72.8 39.46, 88.97 20.5, 105.86 -3.87 M51.19 60.62 C70.41 46.34, 84.82 28.93, 106.66 0.74 M56.44 61.12 C78.8 44.49, 91.15 20.31, 109.12 -1.99 M60.14 60.69 C77.47 41.85, 91.99 20.11, 112.9 -1.88 M67.65 60.41 C82.38 45.46, 96.11 25.87, 118.45 -0.45 M62.68 59.11 C78.07 47.06, 90.97 30.7, 118 2.15 M65.54 62.45 C79.63 43.61, 94.67 31.37, 122.04 3.07 M68.01 61.37 C78.77 49.64, 89.53 38.41, 122.79 0.36 M76.07 63.59 C93.47 40.18, 109.68 15.29, 127.32 -2.7 M76.38 60.13 C91.91 42.75, 108.63 20.08, 127.28 2.28 M80 62.32 C96.08 34.18, 117.14 14.85, 131.64 3.94 M78.33 62.27 C94.3 47.54, 106.25 33.46, 131.17 1.18 M85.77 61.15 C96.98 46.11, 118.82 23.58, 135.13 3.61 M85.32 61.92 C100.17 44.35, 115.27 28.64, 138.55 1.2 M88.87 60.46 C109.91 33.11, 134.46 10.78, 144.11 -2.32 M88.93 59.57 C108.55 38.89, 126.28 21.62, 143.05 -1.66 M96.71 60.42 C112.11 41.38, 128.19 24.38, 151.96 -1.85 M95.59 59.1 C106.96 45.93, 118.21 30.55, 148.58 -0.39 M104.01 62.79 C126.4 36.82, 141.39 9.32, 150.48 1.55 M101.72 58.85 C116.45 43.44, 129.17 24.52, 154.5 0 M109.65 56.89 C118.44 47.78, 133.59 32.96, 158.74 2.77 M104.42 60.71 C121.88 38.05, 140.31 18.2, 160.27 1.62 M108.07 61.4 C128.65 43.11, 146.15 14.75, 162.54 0.99 M112.69 61.11 C123.21 47.33, 134.4 32.77, 162.69 -1.28 M114.14 62.27 C136.47 41.3, 158.71 18.23, 167.2 -2.49 M118.09 60.18 C129.78 45.01, 143.57 29.71, 168.57 0.77 M122.53 62.59 C141.61 43.06, 151.67 23.33, 176.95 1.63 M121.94 60.73 C138.12 39.37, 156.99 20.43, 175.89 1.48 M124.58 60.44 C137.24 43.46, 155.55 32.73, 183.86 -3.42 M126.01 61.37 C142.93 45.07, 154.88 26.71, 178.55 1.96 M131.69 58.82 C147.2 40.93, 161.49 25.22, 187.15 1.3 M131.67 59.52 C145.94 46.7, 156.62 30.92, 187.48 -0.34 M136.16 59.47 C155.36 37.83, 179.67 18.34, 190.09 -3.59 M138.65 60.53 C158.52 38.52, 176.44 16.75, 191.38 -0.46 M142.64 56.76 C161.98 40.95, 174.61 25.28, 195.39 2.01 M144.16 60.68 C162.24 39.01, 181.23 18.67, 197.9 -0.96 M144.9 63.61 C163.93 43.79, 178.85 22.87, 202.06 3.6 M149.61 60.32 C168.8 37.86, 189.05 13.42, 202.31 -0.76 M157.3 57.27 C174.69 37.85, 189.89 23.57, 208.76 -2.07 M155.79 58.83 C171.58 44.45, 186.42 23.62, 208.7 -2.18 M159.61 61.3 C175.43 44.63, 183.29 33.46, 210.72 -1.08 M157.56 59.8 C174.31 45.05, 185.11 27.53, 210.68 0.21 M168.4 59.38 C176.63 40.49, 199.1 21.09, 219.12 3.47 M167.03 61.99 C186.07 39.67, 202.31 14.79, 216.53 0.59 M173.92 61.19 C185.26 45.28, 193.77 32.7, 225.89 -2.63 M168.27 60.46 C188.55 38.64, 205.05 16.06, 221.94 1 M178.82 57.06 C186.86 47.28, 196.03 32.85, 231.18 1.18 M175.79 62.34 C185.55 44.24, 200.07 30.91, 227.13 0.36 M178.29 64.08 C202.2 38.84, 217.54 15.1, 232.16 -3.9 M180.59 60.17 C198.53 38.74, 216.14 21.65, 233.61 1.57 M184.23 64.23 C201.45 42.41, 218.28 22.93, 241.79 2.58 M186.05 59.21 C195.62 49.2, 206.96 35.48, 236.67 1.29 M187.97 58.99 C205.08 48.04, 219.61 34.6, 240.94 2.46 M192.49 59.22 C210.61 41.62, 228.05 20.68, 245.34 1.28 M197.14 59.24 C212.71 48.71, 224.66 26.04, 246.58 1.1 M197.89 61.58 C209.13 44.32, 222.11 28.55, 248.39 1.69 M199.04 59.11 C220.16 39.73, 239.39 16.7, 254.47 -2.01 M203.02 62.29 C222.55 37.33, 242.68 15.13, 252.84 0.9 M205.52 57.88 C220.05 44.56, 236.92 19.57, 256.04 -3.37 M208.17 59.1 C219.03 46.88, 231.58 31.17, 258.65 0.54 M216.37 57.82 C227.4 42.25, 239.78 26.51, 261.78 -1.58 M214.32 60.49 C226.36 42.4, 243.73 27.29, 265.92 0.6 M216.16 62.12 C230.26 43.03, 250.88 20.3, 270.1 -3.5 M215.83 60.82 C235.91 35.42, 258.42 12.19, 269.57 0.47 M225.66 56.69 C239.01 42.11, 253.39 26.65, 274.72 1.65 M221.63 61.32 C232.05 46.75, 246.74 36.55, 274.5 -2.02 M226.67 64.13 C247.19 35.02, 262.86 17.49, 281.53 4.19 M227.9 61.2 C242.11 44.14, 257.35 29.11, 282.35 -1.49 M237.43 61.48 C244.34 45.44, 256.73 37.33, 283.97 -0.2 M235.28 58.69 C255.22 36.63, 274.86 16.36, 286.59 -1.99 M237.46 58.25 C255.63 40.45, 267.21 30.2, 287.9 -0.58 M237.51 62.11 C254.49 42.38, 268.31 25.03, 291.29 0.11 M242.98 62.14 C262.37 44.49, 272.45 28.41, 294.99 -0.86 M242.69 58.92 C256.14 44.07, 273.29 26.01, 298.26 -0.9 M247.76 61.03 C268.77 32.79, 292.57 13.62, 303.59 -1.94 M249.89 58.81 C262.51 45.26, 275.8 25.86, 301.78 1.11 M258.47 60.78 C266 41.06, 283.85 25.22, 308.08 0.16 M254.39 58.73 C266.63 45.51, 278.81 34.66, 307.73 -0.95 M259.61 59.18 C275.73 40.81, 299.6 19.19, 315.79 0.18 M260.34 61.98 C276.23 45.35, 292.09 25.62, 312.32 1.76 M264.83 59.74 C283.44 43.23, 298.04 22.92, 314.34 1.51 M265.98 59.25 C278.63 44.74, 294.63 26.7, 317.27 1.05 M273.85 61.63 C283.63 44.73, 296.86 32.33, 320.53 2.04 M272.28 59.71 C289.83 40.38, 313.01 16.29, 324.48 0.74 M275.82 57.52 C296.95 34.4, 311.92 13.77, 331.69 -3.95 M276.18 60.02 C292.74 44.2, 304.2 31.03, 327.26 -0.27 M278.17 63.48 C298.32 41.83, 313.74 24.2, 334.61 0.08 M283.22 59.47 C293.76 46.16, 306.38 30.85, 332.95 1.1 M285.36 61.57 C293.59 45.15, 309.85 32.89, 336.85 -1.19 M288.12 61.73 C296.53 48.25, 309.4 34.06, 338.17 -0.89 M291.03 58.01 C312.78 41.25, 328.14 20.74, 343.67 2.94 M290.74 62.17 C312.62 35.34, 331.57 11.58, 343.48 0.32 M298.14 57.26 C313.24 41.26, 336.64 20.65, 348.71 3.78 M298.02 61.22 C314.21 42.12, 332.74 21.39, 347.92 -0.63 M301.72 56.69 C324.35 36.91, 338.95 21.26, 354.16 3.43 M302.55 60.11 C318.18 38.7, 339.33 18.05, 354.95 0.28 M305.71 64.42 C324.37 42.76, 349.59 18.77, 362.93 0.86 M309.21 62.01 C325.76 40.01, 341.17 22.58, 360.47 -0.18 M314.35 61.2 C327.33 40.73, 348.39 21.83, 365.34 -1.44 M314.42 59 C325.82 41.81, 338.99 29.18, 365.31 1.26 M317.06 58.3 C335.6 40.6, 348.82 26.09, 368.02 0.4 M316.76 61.24 C337.68 40.3, 354.68 17.67, 371.92 1.47 M327.83 59.37 C333.91 47.2, 350.68 25.76, 373.28 1.52 M324.23 59.94 C340.25 40.4, 357.85 20.81, 377.6 -0.04 M330.04 62.35 C340.36 50.16, 354.86 29.4, 383.96 2.2 M328.86 60.49 C340.82 42.9, 356.03 27.92, 383.13 1.96 M331.89 61.26 C350.14 39.01, 366.77 15.25, 390.86 -2.3 M333.96 61.46 C350.84 43.11, 366.34 26.59, 385.98 -0.53 M343.25 64.19 C359.86 37.81, 374.32 24.21, 393.54 0.22 M340.77 59.73 C358.94 37.95, 379.98 14.46, 393.02 -1.66 M343.06 63.08 C363.64 39.56, 373.8 26.12, 395.77 -3.33 M343.67 61.49 C364.49 34.43, 386.12 10.69, 397.68 -0.7 M352.17 59.65 C362.92 46.72, 373.36 34.71, 402.36 2.64 M348.85 59.35 C365.29 41.19, 380.09 24.06, 400.64 1.07 M352.71 59.25 C366.44 48.12, 375.22 36.57, 406.54 -3.82 M357.52 59.36 C371.11 44.25, 381.78 31.65, 407.03 1.36 M361.03 56.74 C374.54 45.07, 390.61 19.54, 410.83 3.79 M360.56 62.12 C371.79 49.02, 382.17 37.69, 415.11 0.01 M363 62.37 C376.42 44.69, 387.9 34.31, 422.47 2.18 M365.76 61.8 C383.88 41.99, 399.88 22.01, 417.46 -0.04 M370.92 63.65 C394.4 35.58, 408.86 15.85, 426.19 -3.77 M372.46 59.24 C388.19 42.85, 402.66 25.14, 425.66 -1.58 M374.9 59.22 C392.36 45.37, 400.03 29.87, 427.7 0.8 M378.75 60.96 C390.94 44.2, 407.38 26.55, 431.49 -0.16 M383.72 60.76 C398.88 38.26, 420.36 19.72, 434.48 -1.33 M380.18 60.3 C398.33 41.09, 417.15 19.14, 435.6 -1 M384.2 62.79 C397.22 44.9, 411.57 33.22, 443.18 2.35 M388.92 60.4 C401.08 47.55, 409.61 32.74, 440.72 -1.89 M390.12 60.64 C410.65 41.61, 419.09 23.4, 444.54 4.03 M392.46 59.32 C401.63 47.49, 412.16 37.47, 444.34 1.82 M401.51 60.23 C417.54 36.07, 429.46 22.93, 450.67 -2.65 M396.81 61.07 C411.23 47.52, 423.41 31.68, 451.87 -1.69 M405.63 64.04 C417.77 51.3, 426.76 38.04, 452.04 -0.59 M405.14 60.7 C416 48.02, 423.72 33.78, 457.38 -1.64 M407.59 57.65 C420.99 44.89, 440.53 23.53, 460.74 0.49 M408.38 60.08 C425.43 46.18, 439.18 27.68, 460.74 0.39 M410.58 63.92 C433.78 37.34, 453.98 18.79, 467.45 2.09 M415.14 61.25 C434.7 36.41, 453.56 17.34, 468.33 1.53 M415.97 57.09 C432 44.05, 445.56 29.59, 468.11 -0.59 M419.68 61.71 C433.04 43.18, 447.31 28.22, 469.57 -0.55 M426.09 57.4 C443.81 33.29, 460.22 10.22, 480.08 -0.44 M426.48 60.21 C444.3 38.84, 461.8 15.8, 476.87 -0.37 M433.04 57.01 C446.46 41.84, 461.46 18.76, 482.3 3.66 M430.87 59.88 C443.12 47.26, 455.7 31.43, 483.64 0.73 M438.12 57.8 C448.93 45.08, 464.38 32.98, 486.02 1.47 M436.26 61.2 C454.32 40.92, 471.77 19.87, 486.79 -1.65 M440.66 61.33 C456.96 40.53, 473.03 18.34, 495.66 -2.74 M438.84 61.17 C456.81 39.88, 473.5 17.68, 493.4 2.15 M449.42 58.64 C467.81 39.75, 484.73 18.26, 500.19 3.68 M444.71 62.26 C462.91 42.75, 479.04 24.54, 499.96 -1.17 M447.48 60.16 C464.56 45.36, 471.79 35.08, 506 3.66 M450.62 59.57 C472.53 36.81, 491.07 12.33, 503.01 1.28 M459.57 61.6 C476.98 38.93, 496.38 15.96, 512.31 0.23 M457.12 61.82 C477.33 37.94, 495.59 18.05, 510.36 -0.43 M460.98 57.78 C476.37 42.89, 493.23 23.58, 511.97 2.47 M461.29 62.47 C475.24 48.42, 484.71 36.17, 515.75 2.08 M468.94 56.56 C485.83 35.48, 505.02 12.67, 522.92 3.33 M465.88 60.74 C480.56 44.51, 490.22 31.02, 518.06 -1.5 M475.46 60.67 C489.7 44.98, 500.63 24.79, 525.01 -2.47 M472.04 60.69 C486.66 40.94, 503.68 24.36, 523.97 0.94 M474.74 57.6 C496.25 42.75, 515.39 19.28, 531.38 -0.59 M476.48 60.27 C495.44 37.98, 518.35 15.05, 531.21 -1.04 M484.02 57.49 C503.25 41.26, 525.55 15.82, 533.37 -3.16 M484.16 62.42 C497.86 42.01, 512.05 26.56, 535.14 0.65 M490.97 58.97 C508.42 43.33, 523.24 21.62, 539.85 1.06 M489.5 60.07 C502.63 42.55, 518.84 24.56, 540.06 -0.32 M490.56 63.08 C509.99 42.05, 523.42 23.49, 546.13 0.59 M493.03 59.28 C507.77 42.98, 523.42 26.75, 545.8 0.39 M496.45 63.11 C518.3 44.24, 529.06 21.64, 549.31 3.07 M498.62 60.22 C514.71 41.69, 531.74 24.69, 550.97 0.81 M505.83 58.5 C525.89 41.74, 539.55 17.11, 557.18 -2.83 M502.12 60.29 C515.34 46.31, 524.36 36.89, 555.6 1.77 M510.82 60.67 C523.5 39.35, 539.87 27.56, 558.96 7.71 M508.6 59.17 C525.67 42.88, 539.77 28.13, 555.78 3.19 M511.36 58.96 C532.11 39.48, 545.06 23.77, 555.36 10.47 M513 61.87 C531.87 40.58, 547.66 22.05, 555.44 10.11 M517.87 59.21 C528.93 45.51, 541.11 35.8, 554.08 19.63 M520.66 60.57 C533.99 45.52, 548.11 30.95, 557.72 17.27 M527.5 61.88 C537 51.74, 549.1 33.84, 557.37 22.67 M523.32 61.87 C536.97 46.7, 547.48 31.97, 558.32 23.25 M528.17 60.22 C538.52 57.28, 542.26 49.82, 554 29.41 M529.06 60.19 C536.89 53.1, 543.84 44.26, 557.32 28.64 M537.41 58.85 C540.97 57.99, 546.75 47.51, 560.19 33.97 M536.84 61.51 C545.94 52.61, 554.21 42.14, 557.84 37.25 M539.14 59.67 C546.93 57.09, 549.89 55.81, 554.29 41.33 M539.2 60.48 C544.77 56.09, 550.01 48.64, 556.64 43.82 M546.99 63.17 C552.27 59.5, 551.29 53.02, 560.46 49.19 M545.57 59.57 C549.87 56.89, 552.16 50.82, 557.95 47.37 M550.65 58.99 C552.73 59.62, 555.29 57.94, 556.44 52.86 M551.8 61.06 C553.16 58.22, 554.62 56.34, 557.57 54.14" stroke="#99e9f2" stroke-width="0.5" fill="none"></path><path d="M-0.26 -1.27 C188.78 4.11, 377.23 3.5, 557.55 0.58 M0.51 -0.74 C192.92 -4.04, 385.5 -4.47, 556.35 0.52 M557.8 3.22 C558.54 12.1, 556.07 25.37, 556.05 57.12 M557.19 1.24 C557.96 17.08, 555.82 34.73, 558.78 61.05 M556.27 61.33 C438.18 61.89, 320.65 63.71, 0.52 58.92 M557.74 59.94 C357.84 61.69, 158.83 61.22, 0.67 60.37 M-1.15 58.65 C-1.27 39.84, 2.6 15.05, 3.36 -1.2 M-1.78 58.49 C-0.42 37.23, 2.04 17.29, 1.17 -0.78" stroke="#1e1e1e" stroke-width="1" fill="none"></path></g><g transform="translate(382.60833740234375 438) rotate(0 146.89166259765625 12.5)"><text x="146.89166259765625" y="0" font-family="Virgil, Segoe UI Emoji" font-size="20px" fill="#1e1e1e" text-anchor="middle" style="white-space: pre;" direction="ltr" dominant-baseline="text-before-edge">ARP Tunnels PPP MAC more...</text></g><g stroke-linecap="round" transform="translate(252.5 249) rotate(0 275.5 30)"><path d="M0 0 C0 0, 0 0, 0 0 M0 0 C0 0, 0 0, 0 0 M0.83 5.68 C0.76 3.16, 4.55 3.11, 5.64 -0.91 M-0.46 5.94 C1.18 3.93, 4.26 1.8, 4.37 0.25 M2.08 14.32 C3.06 9.27, 3.82 6.91, 12.86 -0.91 M0.71 12.21 C1.34 8.05, 4.86 7.97, 10.62 -0.65 M-3.3 22.23 C3.01 12.88, 12.02 12.32, 13.31 -1.43 M-1.1 19.34 C4.5 11.72, 9.36 7.73, 15.45 0.36 M-3.3 22.42 C5.02 14.58, 12.21 12.2, 18.47 3.53 M-0.56 24.68 C7.13 18.84, 10.83 12.86, 19.28 0.03 M3.85 33.49 C8.87 19.67, 16.04 17.17, 29.64 -1.84 M-1.42 30.6 C8.87 19.26, 16.45 11.28, 24.94 -1.62 M-0.44 34.36 C9.03 29.3, 11 20.24, 31.46 -2.14 M1.02 35.35 C8.74 22.91, 21.56 11.6, 29.99 0.34 M-2.45 42.99 C11.79 35.54, 18.77 27.24, 37.4 -1.07 M2.05 42.49 C12.57 27.37, 28.61 10.12, 35.35 -1.31 M-4.01 46.45 C18.89 29.69, 32.05 9.42, 45.09 0.42 M-0.54 48.16 C12.47 34.42, 22.5 21.56, 42.5 -0.9 M4.24 55.57 C13.81 42.09, 23.6 28.99, 49.2 2.04 M2.16 54.9 C18.97 36, 34.78 15.97, 46.2 -0.76 M0.34 62.08 C19.27 40.97, 38.73 20.3, 52.86 1.99 M-0.57 61.96 C20.21 36, 41.99 12.9, 51.64 1.75 M8.42 58.18 C24.09 39.26, 41.2 21.13, 56.46 2.85 M4.13 60.08 C24.98 38.95, 47.57 14.32, 59.14 1.4 M14.97 60.29 C30.56 37.36, 47.01 21.54, 61.09 1.49 M12.86 60.4 C24.37 47.18, 35.23 35.04, 65.33 -1.91 M18.17 60.03 C36.59 35.86, 51.46 10.47, 65.39 2.9 M17.01 60.71 C28.34 46.72, 37.84 32.88, 67.88 -0.05 M22.01 56.19 C33.37 45.29, 45.54 32.2, 76.92 2.07 M20.75 58.47 C36.31 41.92, 54.16 20.32, 74.6 0.35 M29.13 56.54 C48.48 35.8, 62.14 13.85, 77.05 -2.1 M27.69 59.95 C36.74 48.61, 49.04 34.4, 80.23 1.04 M32.25 63.75 C45.08 38.8, 67.03 23.83, 88.3 -0.96 M32.06 59.21 C51.58 36.18, 72.54 13.22, 83.56 1.15 M38.99 61.27 C61.44 36.54, 79.57 14.96, 91.28 -2.23 M37.41 59.28 C48.47 47.51, 57.25 33.36, 88.12 0.28 M39.29 63.14 C61.44 35.75, 83.92 14.76, 91.98 -0.1 M43.81 59.08 C57.06 40.73, 77.38 21.65, 95.4 -0.46 M46.26 59.98 C62.43 43.23, 75.13 27, 102.74 -1.38 M46.5 58.62 C63.41 42.95, 80.68 26.52, 101.53 0.65 M54.9 61.47 C74.88 39.53, 95.73 9.2, 105.54 -3.64 M54.47 62.7 C66.98 48.94, 78.4 34.73, 106.44 -1.05 M62.26 62.61 C72.83 41.1, 84.61 26.84, 112.93 2.72 M60.39 62.29 C71.22 43.71, 89.64 23.8, 110.58 -1.47 M67.6 61.76 C83.75 38.16, 99.69 19.87, 114.7 1.05 M64.59 61.82 C75.35 49.56, 87.93 38.37, 115.41 1.99 M67.12 59.3 C86.48 42.9, 103.99 24.65, 118.11 -1.44 M67.59 61.01 C79.19 49.27, 92.61 35.53, 123.44 1.74 M74.8 63.49 C89.57 38.93, 111.94 13.67, 127.98 0.53 M74.81 61.89 C86.02 44.52, 99.24 33.48, 128.12 1.4 M77.8 56.37 C97.79 37.75, 114.85 22.75, 129.41 -3.2 M81.73 61.9 C103.78 36.38, 121.12 12.93, 132.41 -0.51 M81.33 63.58 C102.26 41.72, 111.8 30.08, 136.71 3.8 M86.56 60.97 C101.36 44.78, 114.96 27.5, 139.47 -1.41 M88.04 56.31 C104.25 44.16, 116.06 30.54, 144.73 2.29 M91.49 58.52 C104.13 48.71, 114.88 32.34, 143.86 0.37 M94.87 61.13 C106.8 48.6, 126.55 27.1, 145.73 3.33 M95.33 60.57 C110.8 41.2, 129.61 22.31, 150.16 -1.35 M104.43 61.84 C117.72 34.7, 137.38 15.02, 152.8 2.07 M102.7 60.79 C120.3 36.7, 140.87 16.14, 152.26 -1.57 M105.88 61.42 C125.1 41.74, 138.77 25.57, 160.68 3.73 M104.72 59.57 C124.65 39.26, 146.05 19.24, 159.95 1.02 M110.34 63.83 C121.47 43.83, 133.72 35.19, 161.16 1.36 M112.23 61.06 C130.08 37.85, 146.86 15.95, 166.18 -0.93 M115.67 63.93 C130.4 50.03, 139.49 29.9, 167.98 1.82 M116.42 60.27 C128.04 46.88, 140.14 32.88, 169.71 1.61 M125.97 61.34 C131.84 45.82, 149.04 33.14, 176.17 3.58 M122.08 60.09 C144.68 37.02, 164.87 14.33, 174.29 1.14 M124.34 58.32 C141.12 50.42, 154.81 31.07, 178.91 -1.38 M128.22 62.39 C147.31 36.47, 167.9 14.87, 179.38 -1.31 M132.33 57.64 C151.96 36.66, 172.86 18.63, 182.98 -1.68 M133.32 61.05 C150.24 39.51, 170.88 20.16, 187.33 -1.14 M134.79 60.45 C153.4 48.5, 165.64 25.52, 193.54 3.32 M139.99 61.04 C154.4 42.99, 171.12 22.52, 190.03 -1.05 M147.24 56.16 C157.39 44.65, 165.62 37.56, 197.58 -2.62 M144.14 59.49 C163.72 37.96, 181.55 17.33, 196.15 -0.1 M148.76 60.35 C160.35 43.81, 172.25 38.43, 204.75 -2.71 M147.71 60.74 C160.94 43.91, 176.76 28.17, 201.79 -0.51 M157.34 56.55 C166.3 49.22, 178.61 32.37, 206.75 -1.27 M155.81 61.39 C165.84 45.85, 178.33 32.5, 205.69 -0.7 M162.78 58.24 C170.6 46.83, 183.04 30.49, 210.23 2.12 M161.44 61.41 C179.81 36.83, 199.17 15.11, 211.9 1.82 M162.06 58.62 C184.46 38.35, 198.7 25.98, 220.11 -1.47 M166.68 61.13 C176.22 41.6, 189.92 28.85, 216.98 1.51 M172.21 60.55 C176.09 51.77, 193.61 32.98, 224.49 3.55 M171.35 60.38 C190.11 36.44, 209.41 16.65, 220.69 1.85 M177.03 59.13 C186.39 44.15, 201.47 35.03, 226.05 3.14 M173.55 60.25 C195.42 37.14, 215.24 12.7, 229.17 -1.6 M183.22 59.87 C197.13 37.66, 212.52 18.56, 234.87 3.53 M181.67 58.41 C192.43 49.4, 203.19 36.76, 233.6 -0.11 M184.61 60.77 C196.15 46.97, 211.83 36.64, 235.17 1.84 M184.3 62.44 C197.88 46.7, 212.43 29.74, 236.8 0 M192.78 62.99 C217.22 39.67, 231.43 14.93, 245.48 0.19 M192.78 61.62 C204.41 47.16, 217.72 32.84, 243.13 -1.33 M198.03 64.68 C211.49 40.39, 225.13 25.88, 246.79 -0.15 M195.9 60.03 C213.91 36.94, 233.06 17.78, 250.51 1.47 M200.68 62.88 C216.12 45.55, 233.85 23.04, 257.28 -0.15 M203.09 59.57 C218.33 41.23, 230.05 25.34, 254.91 1.32 M204 63.41 C217.21 43.85, 229.61 28.27, 257.14 2.85 M207.1 61.05 C219.71 45.26, 232.43 30.69, 259.05 1.64 M213.53 58.71 C223.58 44.98, 235.17 28.37, 264.02 -2.98 M211.16 59.23 C230.63 40.4, 247.33 20.68, 265.63 1.37 M214.01 61.74 C228.62 46.03, 239.43 31.88, 273.86 1.93 M215.72 59.9 C237.66 38.44, 256.29 16.87, 269.93 2.02 M224.73 59.83 C239.08 44.49, 253.61 26.03, 272.28 2.39 M221.6 58.94 C238.23 47.06, 247.36 29.75, 277.1 0.76 M228.4 56.59 C237.61 46.11, 254.32 35.11, 279.44 2.38 M228.69 59.39 C241.15 47.47, 252.24 33.05, 278.75 1.49 M234.52 57.77 C251.8 42.47, 263.49 21.78, 289.43 -1.15 M235.14 58.49 C245.43 48.81, 255.8 33.25, 286.21 -0.15 M240.29 57.12 C247.77 52.69, 257.48 35.51, 291.16 3.67 M240.04 60.76 C257.61 39.22, 276.5 17.23, 291.18 -1.65 M245.94 62.27 C257.65 44.32, 275.95 21.05, 295.69 1.46 M242.6 61.05 C266.67 36.95, 286.6 14.44, 298.95 -0.62 M247.63 56.63 C265.88 44.33, 281.24 24.23, 301.14 3.47 M248.86 61.62 C260.61 44.63, 275.73 31.69, 301.03 0.31 M252.84 57.23 C276.74 33.1, 295.22 13.62, 304.05 -2.52 M254.88 59.2 C276.99 38.18, 296.77 12.9, 308.4 -1.48 M257.19 60.63 C275.91 45.46, 288.44 32.17, 312.27 1.63 M261.38 62.03 C272.83 46.43, 281.78 35.96, 312.16 -1.51 M267.88 60.76 C287.7 34.85, 301.18 17.07, 316.33 -1.65 M264.99 60.93 C288.19 34.88, 305.8 14.54, 316.74 0.84 M272.52 58.82 C291.49 38.43, 304.02 19.64, 326.3 -3.81 M268.89 62.4 C283.5 47.5, 295.33 33.61, 324.55 1.4 M278.54 57.14 C293.48 37.41, 317.38 13.38, 327.18 -4.29 M278.02 59.63 C291.27 44.58, 305.26 25.22, 329.23 0.3 M282.02 61.08 C297.83 43.31, 315.27 22.64, 331.76 3.37 M281.78 61.61 C298.55 40.72, 315.87 19.97, 332.27 0.98 M282.46 57.61 C298.22 46.06, 305.82 34.66, 336.03 -2.63 M284.51 60.87 C298.91 43.19, 311.81 27.7, 340.24 -0.71 M294.89 61.47 C308.1 44.4, 321.94 28.91, 348.01 -2.42 M291.54 58.89 C307.3 38.73, 324.58 22.02, 345.47 -1.45 M294.05 61.31 C309.49 50.38, 317.27 40.47, 350.49 0.11 M297.06 61.34 C311.55 44.29, 322.11 28.1, 350.57 -0.65 M305.12 58.26 C316.87 47.18, 332.89 29.17, 357.2 3.44 M300.75 59.91 C319.09 42.69, 333.72 24.89, 356.41 -1.15 M304.57 63.86 C322.54 47.9, 333.61 34.28, 360.94 -1.41 M308.39 59.4 C321.92 42.38, 338.82 22.95, 360.08 0.15 M311.55 57.89 C328.03 43.65, 335.36 32.44, 364.32 3.71 M313.1 58.74 C332.4 38.95, 353.51 14.72, 365.44 0.03 M320.75 58.29 C337.84 40.35, 352.76 18.99, 372.61 1.96 M319.98 62.09 C339.66 37.12, 360.3 15.59, 369.76 2.06 M321.8 62.99 C343.1 35.21, 357.4 18.66, 377.15 -0.61 M323.34 59.85 C340.58 40.61, 358.13 22.32, 374.99 -0.36 M328.12 63.83 C344.81 39.7, 360.36 28.5, 380.2 2.79 M327.38 59.81 C346.96 39.9, 367.79 19.7, 382.35 1.08 M332.32 60.38 C348.69 37.57, 373.69 18.1, 386.31 -2.38 M335.34 60.12 C351.93 42.11, 364.97 23.4, 387.6 0.64 M343.04 57.88 C355.79 44.01, 373.33 21.23, 395.22 -2.16 M338.25 60.42 C351.84 45.09, 366.32 28.64, 391.68 -0.39 M348.37 57.06 C361.86 39.77, 379.1 15.83, 401.2 -0.22 M344.06 58.84 C366.55 34.46, 386.85 12.13, 395.9 1.38 M352.68 60.06 C369.52 40.22, 385.63 21.42, 401.98 0.05 M350.36 59.14 C370.95 36.9, 388.72 16.33, 400.67 0.48 M356.03 60.24 C370.6 43.34, 385.89 21.24, 406.05 -2.62 M357.55 59.69 C373.5 40.24, 391.82 18.09, 408.62 1.65 M359.01 64.14 C373.78 41.02, 389.11 29.7, 409.62 2.54 M361.54 60.62 C371.77 48.79, 384.1 35, 411.34 0.91 M366.17 57.29 C385.17 38.86, 405.4 22.42, 419.9 0.16 M366.94 60.78 C377.88 46.22, 388.56 32.8, 420.56 0.61 M374.82 58.11 C382.23 45.84, 399.62 26.15, 424.08 -1.35 M371.74 60.91 C383.63 46.11, 400.64 27.14, 422.81 -1.48 M378.49 59.78 C387.52 43.7, 403.1 30.08, 428.61 0.03 M376.49 60.61 C391.56 42.92, 406.33 27.14, 430.64 -1.15 M379.72 60.13 C399.97 42.33, 417.33 17.73, 436.13 1.87 M381 61.47 C397.98 43.01, 414.04 25.18, 433.28 1.36 M385.5 59.47 C405.22 42.11, 425.34 23.38, 436.84 -0.91 M389.52 60.09 C398.89 43.27, 413.45 28.45, 439.85 0.37 M396.12 58.54 C404.93 40.75, 421.87 30.94, 441.34 1.9 M391.44 59.17 C403.64 47.95, 416.57 34.49, 446.05 1.86 M400.53 56.31 C406.16 49.23, 422.81 28.24, 448.06 -2.37 M398.45 60.54 C410.27 45.63, 422.07 33.1, 449.31 -1.46 M405.24 63.89 C412.2 51.21, 419.89 34.62, 452.09 0.63 M405.28 60.27 C415.22 42.03, 432.26 25.82, 455.52 -1.12 M405.04 63.17 C429.21 37.55, 447.14 17.21, 460.57 -1.87 M410.16 62.43 C421.02 47.53, 431.52 34.3, 462.2 -1.82 M415.13 56.9 C429.95 44.77, 438.74 35.36, 469.58 0.12 M414.84 58.44 C424.51 48.64, 437.99 35.13, 465.17 -0.34 M419.3 58.88 C439.23 39.06, 452.49 19.36, 470.82 2 M418.55 60.39 C432.98 44.2, 447.83 23.4, 473.14 2.24 M424.64 56.49 C435.2 40.39, 456.99 26.36, 479.81 -1.37 M424.53 60.78 C435.51 43.97, 451.28 27.79, 477.59 1.87 M430.42 60.68 C438.21 45.64, 450.84 39.61, 480.02 2.58 M430.69 61.7 C441.88 46.98, 455.41 32.72, 480.83 -1.16 M435.44 59.75 C454.05 43.65, 465.92 24.23, 489.61 2.61 M436.85 61.77 C450.2 44.21, 463.35 24.1, 488.45 -0.43 M438.95 61.28 C454.2 39.69, 477.27 18.07, 494.26 1.66 M439.38 61.31 C459.26 36.1, 482.18 15.72, 494.08 -0.26 M448 61.98 C459.17 46.28, 476.25 30.39, 498.61 -1.32 M446.4 61.31 C462.72 42.59, 479.48 22.11, 496.52 1.24 M454.3 57.56 C464.49 45.15, 480.6 34.15, 507.07 2.48 M452.5 60.57 C465.9 42.69, 481.55 26.66, 504.47 -0.63 M457.61 60.64 C473.16 40.65, 490.75 23.59, 511.25 -2.34 M457.88 58.69 C468.41 46.4, 480.4 32.74, 509.67 -0.24 M458.64 62.59 C470.54 49.89, 484.77 34.65, 510.8 -1.55 M463.05 61.22 C473.67 46.77, 488.79 32.22, 515.64 1.57 M466.38 59.41 C483.54 39.24, 507.46 21.43, 516.8 -1.43 M468.06 58.63 C482.95 39.67, 499.57 20.32, 518.84 -1.58 M475 61.62 C490.31 35.18, 510.02 13.56, 524.63 1.16 M471.11 59.44 C489.42 41.33, 505.73 21.88, 525.36 1.57 M479.21 64.12 C501.23 39.06, 519.47 14.81, 533.33 0.59 M475.82 61.24 C497.4 40.64, 515.03 18.36, 532.1 0.89 M483.18 64.1 C494.99 51.06, 501.77 33.52, 534.52 -3.6 M481.85 59.78 C499.35 38.52, 519.9 16.17, 535.46 0.01 M491.85 62.83 C507.77 39.25, 523.35 19.43, 539.72 -0.89 M488.14 60.03 C510.3 34.42, 528.78 11.89, 540.57 1.3 M495.84 59.66 C512 38.23, 528.46 21.2, 545.26 -3.85 M491.55 61.23 C512.89 39.29, 534.59 14.13, 545.9 0.96 M502.82 61.76 C509.58 43.86, 520.04 36.83, 551.01 -1.55 M498.08 59.94 C513.98 44.42, 528.06 27.34, 551.85 -1.12 M506.4 62.11 C511.01 47.79, 524.12 35.07, 547.22 8.61 M505.56 59.16 C522.46 41.89, 538.97 22.13, 551.46 7.9 M509.48 57.31 C525.98 44.92, 541.63 27.18, 550.52 8.94 M510.8 59.3 C525.85 44.38, 537.05 25.65, 552.09 13.12 M517.14 57.48 C528.41 44.76, 539.19 30.12, 554.81 22.14 M516.34 59.35 C526.35 47.7, 533.58 35.48, 550.26 17.71 M519.35 56.85 C534.12 44.74, 539.7 36.78, 553.42 27.19 M520.9 60.6 C527.79 53.98, 532.89 45.45, 551.54 26.02 M527.12 63.94 C537.03 47.99, 542 39.77, 553.84 33.97 M525.44 60 C529.67 52.76, 537.21 47.79, 549.12 31.35 M532.7 63.65 C535.26 57.9, 535.74 50.76, 549.84 33.35 M529.05 61.47 C534.97 54.25, 542.1 46.58, 549.73 37.29 M536.23 63.89 C542.34 52.97, 549.17 46.6, 553.67 39.34 M537.51 61.7 C541.87 55.35, 544.5 52.23, 549.67 41.01 M542.3 61.3 C544.47 60.68, 544.19 53.9, 550.85 47.91 M540.17 61.12 C543.2 56.75, 545.31 56.84, 551.29 47.38 M547.41 61.56 C547.09 58.71, 550.55 57.58, 551.57 56.04 M546.41 60.72 C547.43 58.23, 549.8 56.7, 551.27 54.85" stroke="#b2f2bb" stroke-width="0.5" fill="none"></path><path d="M0.75 1.39 C132.75 4.26, 263.73 4.07, 551.73 -1.45 M0.32 0.38 C220.16 4.01, 439.09 4.58, 550.38 0.52 M551.75 -1.24 C549.53 20.96, 550.29 41.66, 551.11 61.37 M551.55 -1.09 C549.53 15.85, 552.9 35.95, 549.25 58.83 M550.53 59.38 C355.04 64.86, 158.88 62.58, 0.93 59.62 M551.16 60.37 C369.83 59.57, 188.39 60.04, 0.38 59.46 M-2.09 60.7 C2.13 39.14, 3.71 23.55, 2.74 -3.75 M-1.54 59.33 C1.98 42.26, 2.24 20.76, 0.49 1.2" stroke="#1e1e1e" stroke-width="1" fill="none"></path></g><g transform="translate(320.3000030517578 266.5) rotate(0 207.6999969482422 12.5)"><text x="207.6999969482422" y="0" font-family="Virgil, Segoe UI Emoji" font-size="20px" fill="#1e1e1e" text-anchor="middle" style="white-space: pre;" direction="ltr" dominant-baseline="text-before-edge">TCP UDP DCCP SCTP RSVP QUIC more...</text></g><g stroke-linecap="round" transform="translate(256.5 10) rotate(0 271.5 105)"><path d="M0 0 C0 0, 0 0, 0 0 M0 0 C0 0, 0 0, 0 0 M-1.24 5.39 C2.04 5.89, 3.34 1.69, 6.24 0.14 M-0.82 6.22 C1.92 4.58, 2.38 2.63, 4.91 0.65 M0.1 12.91 C1.47 9.53, 9.83 2.25, 7.61 1.59 M-0.69 10.49 C3.51 9.5, 5.9 4.66, 10.01 -1.01 M-1.32 17.86 C9.8 14.89, 9.74 2.7, 16.95 3.57 M-0.45 17.9 C4.81 13.51, 10.83 5.74, 13.94 0.67 M0.57 20.13 C11.62 13.97, 13.85 9.51, 19.62 2.68 M2.03 24.73 C4.98 19.71, 7.47 13.72, 21.04 -0.84 M1.05 27.91 C5.48 27.49, 13.67 15.46, 27 2.25 M0.8 29.29 C10.36 19.5, 18.95 5.73, 24.46 -0.5 M1.96 37.64 C9.54 22.57, 24.06 6.82, 33.51 3.87 M-1.47 35.43 C9.24 26.51, 15.97 16.41, 30.02 -1.14 M3.77 44.43 C15.56 31.14, 24.89 13.86, 40.77 1.6 M-1.74 43.45 C6.39 34.39, 12.77 23.75, 38.7 -0.5 M1.83 48.14 C8.32 37.16, 21.52 29.15, 40.93 -0.08 M1.39 47.47 C14.75 31.33, 28.5 15.77, 41.91 -0.29 M1 56.02 C7.63 45.09, 22.15 31.68, 49.58 -0.44 M2.18 55.13 C14.59 37.67, 26.43 20.64, 48.08 -1.02 M0.6 60.59 C13.82 46.71, 21.63 37.52, 57.1 -0.62 M-1.52 60.79 C15.77 42.8, 30.62 25.87, 53.94 0.97 M1.07 66.23 C15.25 51.1, 28.76 34.35, 61.57 -1.73 M-1.76 69.22 C20.17 46.82, 38.88 26.17, 59.12 -1.34 M0.16 71.36 C16.54 54.04, 35.31 29.56, 60.08 -3.03 M1.47 72.99 C22.15 48.1, 44.25 20.88, 65.42 1.33 M1.07 78.52 C20.61 47.07, 46.69 23.73, 65.68 0.04 M0.21 79.77 C22.83 50.03, 49.22 20.62, 67.43 -0.31 M-0.81 85.02 C26.58 55.85, 57.75 25.55, 74.71 1.61 M-0.92 86.09 C29.03 52.97, 55.93 24.22, 75.77 0.87 M2.95 88.82 C19.06 64.45, 42.19 38.41, 75.68 3.37 M-0.04 92.48 C27.8 60.02, 54.37 30.42, 79.72 1.58 M-3.44 95.1 C23.28 73.25, 45.61 46.77, 88.65 0.39 M-1.51 97.24 C23.05 71.44, 45.95 45.73, 86.48 -0.92 M4.13 102.46 C32.71 67.63, 62.11 30.1, 86.13 -1.02 M0.11 103.73 C33.77 62.19, 69.09 23.39, 91.79 0.29 M-2.11 109.01 C31 76.79, 56.06 42.22, 96.39 2.6 M-2.05 109.75 C29.76 77.61, 56.66 44.26, 95.16 0.84 M0.84 114.99 C31.28 79.84, 65.57 42.87, 100.41 -2.27 M-0.6 115.28 C28.46 89.32, 53.65 59.76, 102.53 -1.84 M-0.34 124.66 C29.61 82.26, 60.38 46.73, 103.21 -4.28 M0.8 123.6 C29.75 85.33, 60.52 47.9, 105.49 -1.53 M-0.55 124.9 C30.87 84.25, 70.16 48.14, 110.73 2.69 M-2.03 129.06 C34.45 83.92, 67.23 43.94, 111.94 1.94 M3.82 131.35 C33.63 93.61, 63.73 56.17, 112.56 -1.84 M0.17 134.41 C26.09 105.4, 48.79 76.16, 116.61 -1.57 M-0.87 142.57 C44.62 94.65, 83.68 40.69, 118.09 -2.87 M-1.94 142.14 C46.11 90.75, 89.52 42.94, 123.08 0.8 M-2.87 146.6 C47.51 87.04, 95.23 36.12, 124.67 4.27 M0.25 144.23 C34.38 107.01, 69.5 66.68, 127.7 0.31 M-0.09 151.03 C47.13 104.98, 91.5 45.24, 135.93 -3.16 M1.8 153.19 C49.16 91.07, 102.92 28.98, 132.19 0.27 M2.19 157.07 C43.18 110.55, 87.52 61.32, 136.72 0.78 M1.48 160.08 C48.41 101.86, 99.1 42.2, 136.25 -0.5 M1.08 162.4 C46.4 114.89, 90.46 68.83, 140.45 -3.15 M0.81 165.67 C36.67 121.83, 75.13 80.16, 142.5 0.36 M-2.04 173.95 C47.37 118.54, 85.65 72.79, 148.81 0.12 M-1.53 169.96 C33.78 132.4, 68.14 93.6, 149.59 1.42 M-2.15 174.98 C50.96 112.68, 108.71 48.95, 156.25 0.54 M0.01 174.96 C34.13 135.28, 67.55 93.34, 154.13 1.28 M2.55 182.4 C33.17 146.65, 67.63 109.64, 160.58 -2.91 M-1.11 182.92 C52.02 129.78, 100.12 73.65, 157.37 -1.38 M-2.6 186.71 C53.74 125.36, 106.88 63.23, 166.18 1.04 M-0.22 188.82 C54.64 121.99, 114.21 57.02, 163.27 -1.3 M0.68 197.86 C57.32 123.81, 115.9 60.61, 167.36 2.05 M-0.31 195.18 C47.67 141.28, 95.97 87.44, 168.36 0.18 M-2.49 201.62 C61.77 129.41, 124.21 58.39, 177.95 -1.2 M0.83 201.9 C58.68 136.83, 114.73 70.62, 173.72 -1.37 M1.37 209.14 C59.32 144.21, 108.95 84.29, 182.84 -2.26 M-0.99 206.87 C59.4 135.23, 121.36 62.15, 180.98 -0.42 M1.56 209.45 C52.83 157.67, 98.63 99.02, 186.71 -2.59 M0.94 210.43 C52.49 153.03, 101.67 95.71, 185.1 -1.01 M7.66 214.13 C59.62 150.75, 112.59 98.15, 190.98 0.83 M7.16 212.36 C59.87 146.69, 114.08 82.68, 189.35 -0.33 M13.51 209.14 C48.36 170.48, 89.89 121.1, 197.74 0.23 M13.43 211.08 C73.2 142.55, 132.38 73.59, 194.87 -1.76 M17.3 208.75 C87.73 134.25, 159.29 49.49, 200.12 1.3 M16.76 210.74 C73.83 148.69, 127.07 87.18, 200.1 1.18 M23.44 213.11 C64.01 164.2, 104.82 116.09, 204.46 1.72 M23.15 210.47 C65.57 158.11, 107.06 108.85, 205.99 -0.24 M27.3 212.08 C83.69 144.11, 142.37 78.61, 214.38 -2.85 M27.7 210.59 C73.32 153.48, 123.51 98.06, 212.18 1.33 M36.15 209.56 C89.08 155.59, 142.05 91.75, 216.29 2.62 M32.29 210.31 C103.12 126.65, 176.72 43.09, 216.11 1.14 M36.18 214.3 C98.4 141.69, 156.02 78.9, 224.73 -2.77 M38.49 210.13 C91.98 148.14, 146.64 84.81, 221.52 1.47 M44 209.05 C82.78 170.06, 117.09 127.58, 231.04 0.73 M43.82 212.62 C115.35 132.65, 186.74 50.8, 228.31 -1.29 M49.22 208.8 C118.83 125.69, 193.05 48.39, 230.43 -0.2 M50 212.52 C101.54 154.01, 154.8 91.45, 231.83 -0.57 M53.69 211.57 C129.33 131.46, 195.43 49.01, 237.3 0.88 M53.08 212.85 C96.71 162.71, 137.91 114.45, 239.72 -0.94 M63.11 213.66 C105.69 155.05, 158.09 97.02, 242.1 1.71 M60.88 212 C103.8 158.93, 146.92 105.38, 243.8 0.27 M64.94 209.57 C110.46 153.73, 159.05 97.07, 250.75 2.7 M64.71 210.58 C128.68 140.95, 193.48 68.1, 248.75 -0.81 M69.05 213.36 C121.46 150.85, 173.24 95.18, 254.13 1.52 M72.16 210.8 C141.08 128.62, 216.03 44.55, 253.61 -0.63 M73.45 209.46 C117.87 158.18, 161.04 114.26, 258.14 2.13 M75.74 211.07 C115.66 164.41, 156.69 118.41, 258.8 1.73 M80.32 210.91 C121.99 160.71, 167.58 109.17, 266.1 2.51 M82.62 211.47 C141.53 147.49, 198.44 82.34, 263.62 -0.66 M86.31 210.11 C151.26 136.64, 216.09 69.54, 272.02 -2.46 M86.33 211.46 C145.9 147.35, 203.05 83.11, 270.17 1.18 M92.42 212.55 C128.9 168.15, 165.88 124.02, 273.65 -2.62 M93.43 212.26 C158.84 136.69, 225.91 63.95, 274.75 -0.74 M94.34 212.08 C168.83 135.35, 238.55 51.91, 277.99 -0.28 M98.27 211.5 C158.22 142.08, 216.17 74.53, 280.95 1.58 M104.55 212.4 C161.31 142.65, 226.51 71.74, 283.74 1.98 M103.53 211.74 C142.04 164.7, 183 118.65, 284.92 -0.71 M105.86 214.55 C148.34 162.16, 195.33 114.23, 292.92 -1.88 M107.26 212.03 C175.05 131.38, 244.33 50.25, 291.56 -0.4 M110.38 213.9 C174.76 135.32, 239.45 63.29, 299.39 -2.99 M114.22 210.32 C161.03 159.09, 205.24 109.05, 296.71 -0.87 M119.09 212.21 C178.42 146.57, 233.95 84.68, 300.57 0.76 M116.76 210.35 C158.52 165.36, 197.31 119.46, 303.31 1.43 M125.02 209.16 C183.79 147.1, 239.02 77.97, 310.41 -1.39 M123.93 212.55 C166.17 163.82, 209.09 114.63, 306.67 -0.44 M131.32 210.66 C182.83 154.9, 229.23 99.52, 309.85 0.46 M130.29 210.98 C195.46 131.37, 264.16 49.7, 313.71 -0.24 M135.53 209.59 C182.87 150.95, 238.06 86.78, 321.06 0.05 M135.42 210.27 C181.93 156.96, 229.06 102.12, 319.04 0.91 M142.01 211.03 C196.54 144.44, 261.49 70.33, 321.12 2.43 M140.72 211.86 C191.74 153.69, 240.02 98.72, 324.18 -0.14 M142.93 210.64 C188.54 160.87, 228.69 110.46, 328.55 -0.64 M144.2 213.25 C195.57 149.22, 252 86.47, 328.98 -1.54 M149.7 213.05 C219.36 131.38, 286.33 54.36, 335.33 2.87 M150.19 211.98 C195.21 157.15, 241.08 103.69, 332.41 -0.34 M155.65 210.21 C215.24 145.51, 273.55 76.6, 338.35 2.34 M154.92 210.9 C221.19 137.51, 286.82 63.96, 339.36 -0.72 M161.24 212.02 C202.01 161.99, 249.51 107.07, 344.88 -1.93 M159.36 209.91 C232.31 131.41, 305.35 47.77, 343.02 0.45 M167.43 212.47 C206.69 168.92, 247.16 121.12, 348.25 1.95 M166.96 211.3 C223.95 141.68, 285.45 73.25, 349.4 0.02 M170.27 214.1 C206.97 171.36, 247.59 127.32, 355.04 -0.16 M172.04 211.42 C227.26 151.29, 281.29 89.32, 353.82 -0.76 M178.75 212.54 C253.18 126.86, 323.79 42.14, 360.2 2.77 M175.92 212.14 C242.42 136.06, 309.1 59.27, 358.85 0.75 M184.87 208.73 C242.28 143.87, 300.64 79.79, 368.64 1.7 M181.39 212.6 C224.98 165.05, 268.06 114.66, 366.54 -0.51 M187.65 211.81 C227.12 162.56, 274.82 112.93, 373.21 -1.99 M187.44 211.4 C245.42 141.22, 304.02 72.36, 371.66 1.81 M193.83 208.48 C242.94 151.98, 296.84 91.75, 376.89 0.41 M192.9 210.65 C246.49 152.1, 296.46 92.07, 376.05 0.35 M198.94 208.76 C263.2 138.44, 323.24 66.52, 383.02 0.23 M197.28 212 C255.17 152.28, 308.28 89.82, 381.81 -0.75 M200.33 209.23 C267.8 140.71, 324.06 71.92, 386.91 -1 M204.46 211.5 C267.48 134.83, 334.99 59.49, 387.29 1.31 M208.84 214.27 C278.18 131.15, 351.02 47.01, 390.56 2.15 M208.16 211 C258.21 156.22, 304.25 103.05, 392.54 -0.57 M212.78 211.57 C278.18 132.42, 350.61 56.26, 400.35 -2.45 M214.04 209.9 C282.6 135.79, 348.08 60.49, 398.36 0.61 M220.31 211.77 C267.55 155.22, 318.13 94.71, 405.05 -1.79 M219.04 210.41 C260.91 163.77, 304.78 112.88, 402.55 -0.98 M223.37 211.66 C273.89 149.83, 324.35 92.27, 410.27 2.45 M224.27 212.4 C268.33 158.3, 317.1 103.81, 408.18 -0.1 M227.77 209.35 C266.8 168.4, 303.52 124.12, 410.3 -0.16 M229.71 212.52 C299.35 131.17, 366.07 51.79, 413.68 -1.15 M235.61 210.38 C303.46 139.82, 366.8 63.13, 416.48 -1.24 M234.8 211.3 C303.55 129.46, 376.23 49.09, 418.07 -0.42 M238.51 212.2 C308.73 130.15, 376.66 52, 422.9 1.74 M239.28 212.29 C284.47 159.57, 325.75 109.65, 423.27 -0.69 M242.28 211.06 C293.82 153.95, 345.72 94.45, 428.62 2.34 M246.22 211.48 C310.75 138.52, 373.26 65.1, 430.17 0.38 M251.22 213.37 C309.09 145.66, 366.78 83.21, 434.03 -2.75 M250.77 211.1 C306.9 147.54, 358.69 87.73, 434.83 -1.24 M255.58 213.36 C327.69 136.23, 390.65 55.73, 438.55 1.6 M255.03 210.47 C311.55 143.48, 369.18 78.14, 439.81 -1.27 M259.13 209.14 C314.21 151.31, 367.78 85.24, 443.14 -0.25 M260.34 212.2 C307.67 162.92, 353.84 111.36, 444.29 1.29 M263.4 214.76 C320.73 147.98, 374.91 83.57, 447.96 -2.64 M266.57 210.71 C331.8 135.5, 394.6 61.18, 449.27 0.56 M271.38 214.31 C339.46 125.79, 411.33 44.11, 454.9 2.85 M271.16 209.93 C327.93 143.75, 384.32 77.63, 456.86 -0.24 M277.88 210.62 C320.16 163.52, 361.01 114.57, 459.15 -0.22 M277.69 211.86 C322.57 153.5, 372.73 95.38, 460.15 -1.65 M285.5 210.1 C353.96 133.2, 427 49.54, 463.89 1.85 M282.62 212.76 C345.96 142.45, 406.78 68.25, 467.07 -1.14 M288.81 210.19 C323.26 168.1, 363.72 125.92, 471.32 1.53 M286.88 213.16 C351.01 137.69, 417.87 66.06, 471.16 0.94 M290.42 208.56 C337.25 165.78, 378.67 117.17, 476.04 2.9 M291.88 211.05 C347.25 148.28, 401.79 87.89, 475.67 1.3 M297.32 209.09 C336.02 170.28, 372.46 125.52, 480.15 2.34 M298.8 211.84 C345.31 155.78, 390.75 99.58, 482.29 1.44 M306.36 212.65 C346.16 162.6, 392.56 113.25, 487.15 1.57 M304.6 212.36 C363.99 135.05, 428.65 63.06, 488.07 0.11 M306.7 210.76 C370.46 141.89, 427.59 78.3, 495.28 -1.76 M307.47 210.82 C370.57 143.38, 430.85 72.79, 492.39 1.66 M314.31 213.23 C361.92 158.11, 408.35 99.47, 498.26 -1.81 M315.04 212.28 C388.32 124.49, 459.08 41.91, 497.51 -1.39 M319.32 211.11 C371.83 155.38, 425.63 93.53, 503.12 -0.04 M319.23 211.02 C362.01 160.23, 408.5 106.57, 503.34 1.44 M326.56 210.49 C388.26 140.56, 448.83 67.99, 506.43 0.88 M325.93 211.32 C393.72 132.93, 462.89 52.9, 508.01 -0.32 M327.45 213.85 C373.2 163.3, 414.52 111.65, 512.15 -0.02 M329.79 212.91 C401.41 128.79, 473.72 45.11, 514.81 0.93 M334.51 210.91 C377.41 170.21, 411.13 122.37, 520.08 -2.02 M334.73 210.29 C393.23 143.19, 453.93 73.99, 520.59 1.12 M340.86 209.06 C394.45 144.73, 449.79 83.52, 525.35 0.14 M341.02 211.91 C398.28 148.86, 455.67 84.54, 525.75 -0.96 M348.63 211.91 C389.52 158.18, 434.34 109.23, 531.38 -2.1 M347.39 211.87 C406.45 144.4, 463.24 81.33, 528.7 0.29 M353.05 212.99 C390.86 159.06, 432.91 111.36, 537.12 2.39 M350.31 212.17 C425.36 129.44, 498.15 45.5, 535.95 1.15 M357.87 211.8 C402.84 153.44, 452.7 94.48, 543.86 1.53 M357.78 210.57 C411.03 148.85, 466.23 87.02, 541.18 -1.31 M362.77 209.86 C426.88 135.83, 492.77 55.85, 547.32 1.17 M361.22 212.82 C408.69 160.33, 452.47 110.49, 543.21 0.65 M366.03 209.81 C429.11 136.45, 497.72 55.44, 544.37 6.72 M367.19 212.79 C422.57 150.24, 478.2 85.53, 543.5 8 M370.83 210.07 C414.57 158.28, 454 112.92, 546.83 10.74 M372.81 212.52 C419.72 156.81, 470.76 99.18, 545.8 14.15 M378.74 213.97 C431.54 155.39, 482.56 89.84, 545.89 18.45 M378.89 212.12 C417.05 162.36, 461.96 115.31, 545.2 18.75 M383.58 210.46 C422.41 163.65, 469.35 118.74, 543.9 23.09 M384.23 210.85 C439.39 142.53, 500.16 73.98, 545.93 25 M390.51 209.34 C426.27 169.66, 471.91 122.85, 541.7 33.92 M389.87 212.53 C431.63 160.19, 477.15 109.2, 545.08 33.05 M397.06 209.32 C443.51 149.86, 496.99 94.5, 541.66 34.52 M392.86 210.29 C450.95 146.73, 505.17 82.25, 543.46 36.88 M399.24 213.67 C435.74 162.09, 479.61 110.9, 544.19 42.17 M397.66 211.97 C439.93 164.81, 478.7 120.16, 545.61 44.82 M405.73 210.15 C443.43 165.61, 480.16 121.49, 543.7 52.29 M406.36 211.34 C452.61 153.68, 501.21 92.81, 543.8 49.79 M410.44 215.15 C442.76 168.16, 481.87 125.22, 542.16 53.27 M409.39 210.27 C449.21 167.95, 488.67 119.96, 545.09 56.45 M412.89 211.7 C466.23 153.86, 513.96 97.64, 546.16 60.45 M413.36 210.33 C449.05 171.53, 482.39 133.05, 545.32 61.67 M420.03 215.59 C445.03 178.08, 473.18 152.93, 543.76 69.73 M419.31 211.26 C463.63 164.08, 506.35 115.54, 545.37 68.32 M429.84 210.62 C466.64 170.09, 499.31 133.65, 542.48 78.34 M424.17 212.32 C468.92 163.95, 513.28 110.82, 542.77 75.28 M431.88 212.17 C456.23 174.81, 492.64 138.82, 545.54 81.53 M431.83 210.23 C459.38 179.51, 490.16 143.43, 546.02 80.98 M438.78 213.49 C476.83 165.08, 518.87 122.31, 547.74 86.28 M436.33 210.01 C470.21 176.76, 497.01 142.4, 544.54 84.76 M439.05 211.62 C479.34 169.96, 513.28 126.37, 543.58 89.48 M440.53 210.12 C480.24 165.97, 521.19 119.85, 544.68 94.17 M444.55 209.21 C479.87 172.7, 520.02 128.2, 545.98 100.52 M447.27 209.46 C481.02 177.43, 509.24 141.91, 546.22 98.78 M451.29 208.45 C483.83 172.07, 524.85 128.91, 543.15 107.18 M454.11 212.48 C480.53 180.4, 508.71 150.16, 543.07 105.25 M454.83 212.89 C483.34 181.54, 517.96 148.12, 541.34 114.25 M456.48 212.18 C483.15 183.37, 511.47 150.41, 543.82 111.15 M459.16 213.36 C492.48 177.66, 517.45 150.77, 540.96 113.66 M462.38 211.25 C481.55 188.87, 503.43 166.64, 543.67 116.25 M467.43 214.56 C482.74 195.65, 504.42 172.68, 540.77 122.61 M466.91 213.81 C485.38 194.39, 502.92 173.35, 546.43 123.85 M470.07 209.23 C489.66 193.09, 504.92 175.92, 544.57 130.16 M474.23 210.77 C498.79 180.57, 526.45 148.29, 543.04 128.59 M476.96 212.21 C495.85 194.54, 507.6 176.61, 546.08 139.16 M477.55 211.13 C501.72 190.18, 522.41 163.13, 546.26 137.51 M480.19 211.12 C506.58 181.36, 531.96 158.25, 543.66 144.84 M483.64 211.8 C503.12 189.15, 521.27 168.62, 545.19 141.86 M490.87 212.23 C508.48 188.57, 531.22 168.11, 544.5 148.92 M489.54 212.63 C501.07 198.43, 515.68 182.8, 543.25 146.41 M494.54 214.3 C512.2 191.42, 526.52 175.97, 540.72 153.79 M495.71 209.5 C510.24 194.46, 520.86 179.53, 546.17 152.78 M496.06 214.49 C512.9 203.71, 521.93 189.76, 544.12 161.08 M498.75 213.4 C510.06 199.35, 521.1 186.2, 546.47 161.24 M506.95 214.21 C516.79 195.03, 535.35 176.32, 543.07 169.56 M504.6 211.43 C515.23 198.26, 524.36 187.41, 544.18 165.77 M510.27 209.02 C521.2 204.63, 531.3 194.69, 545.17 173.76 M509.16 209.96 C516.15 201.87, 523.41 194.44, 543.39 171.86 M512.04 210.48 C523.48 199.04, 531.51 190.21, 545.49 174.11 M515.58 211.58 C523.09 203.87, 528.02 196.68, 544.17 179.86 M522.04 212.05 C525.31 205.88, 531.26 202.42, 546.65 183.05 M522.84 210.25 C528.98 202.1, 535.15 196.3, 544.57 186.26 M525.26 210.94 C535.43 206.29, 538.74 197.64, 541.58 187.62 M527.01 212.32 C533.41 206.03, 538.41 199.02, 543.16 191.52 M534.71 213.99 C537.02 204.67, 541.94 200.62, 546.41 199.43 M529.93 211.6 C534.39 209.45, 538.24 206.46, 545.68 197.11 M538.11 211.42 C537.73 208.2, 541.06 206.24, 543.7 201.98 M536.73 210.79 C537.45 209.62, 539.06 207.99, 543.97 202.07" stroke="#a5d8ff" stroke-width="0.5" fill="none"></path><path d="M1.16 0.77 C120.46 -3.18, 240.54 -5.21, 544.58 1.01 M0.29 -0.06 C112.22 -1.52, 225.13 -1.52, 543.57 0.16 M541.49 -1.15 C542.85 77.37, 543.79 161.03, 542.68 210.34 M541.59 -1.42 C545.6 76.94, 542.48 150.98, 543.99 209.19 M543.35 211.2 C335.49 207.24, 127.87 207.94, 0.47 211.47 M543.47 209.9 C384.8 212.39, 225.64 211.48, -0.05 209.77 M1.58 207.14 C4.91 153.05, 4.35 94.92, 0.72 -3.14 M0.81 211.32 C3.9 162.16, 3.3 116.77, 0 -0.49" stroke="#1e1e1e" stroke-width="1" fill="none"></path></g><g transform="translate(261.9083251953125 65) rotate(0 266.0916748046875 50)"><text x="266.0916748046875" y="0" font-family="Virgil, Segoe UI Emoji" font-size="20px" fill="#1e1e1e" text-anchor="middle" style="white-space: pre;" direction="ltr" dominant-baseline="text-before-edge">BGP DHCP (v6) DNS FTP HTTP (HTTP/3) HTTPS </text><text x="266.0916748046875" y="25" font-family="Virgil, Segoe UI Emoji" font-size="20px" fill="#1e1e1e" text-anchor="middle" style="white-space: pre;" direction="ltr" dominant-baseline="text-before-edge">IMAP IRC LDAP MGCP MQTT NNTP NTP OSPF POP</text><text x="266.0916748046875" y="50" font-family="Virgil, Segoe UI Emoji" font-size="20px" fill="#1e1e1e" text-anchor="middle" style="white-space: pre;" direction="ltr" dominant-baseline="text-before-edge">PTP ONC/RPC RTP RTSP RIP SIP SMTP SNMP SSH</text><text x="266.0916748046875" y="75" font-family="Virgil, Segoe UI Emoji" font-size="20px" fill="#1e1e1e" text-anchor="middle" style="white-space: pre;" direction="ltr" dominant-baseline="text-before-edge">Telnet TLS/SSL XMPP more...</text></g><g transform="translate(10 99) rotate(0 111.64167022705078 17.5)"><text x="0" y="0" font-family="Virgil, Segoe UI Emoji" font-size="28px" fill="#1e1e1e" text-anchor="start" style="white-space: pre;" direction="ltr" dominant-baseline="text-before-edge">Application layer</text></g><g transform="translate(10 256) rotate(0 109.60832977294922 17.5)"><text x="0" y="0" font-family="Virgil, Segoe UI Emoji" font-size="28px" fill="#1e1e1e" text-anchor="start" style="white-space: pre;" direction="ltr" dominant-baseline="text-before-edge">Transport layer</text></g><g transform="translate(10 348) rotate(0 98.13333129882812 17.5)"><text x="0" y="0" font-family="Virgil, Segoe UI Emoji" font-size="28px" fill="#1e1e1e" text-anchor="start" style="white-space: pre;" direction="ltr" dominant-baseline="text-before-edge">Internet layer</text></g><g transform="translate(10 436) rotate(0 65.07499694824219 17.5)"><text x="0" y="0" font-family="Virgil, Segoe UI Emoji" font-size="28px" fill="#1e1e1e" text-anchor="start" style="white-space: pre;" direction="ltr" dominant-baseline="text-before-edge">Link layer</text></g></svg>